<!-- Generator: Adobe Illustrator 25.2.0, SVG Export Plug-In . SVG Version: 6.00 Build 0)  -->
<svg version="1.1" id="图层_1" xmlns="http://www.w3.org/2000/svg" xmlns:xlink="http://www.w3.org/1999/xlink" x="0px" y="0px"
	 viewBox="0 0 1024 1024" style="enable-background:new 0 0 1024 1024;" xml:space="preserve">
	<path class="st0" d="M359.94,443.92"/>
	<path class="st0" d="M359.94,443.92"/>
	<path class="st0" d="M359.94,443.92"/>
	<path class="st1" d="M544.87,295.52c-0.21-0.03-0.42-0.07-0.62-0.1c-0.04-0.01-0.09-0.01-0.13-0.02c-0.07-0.01-0.14-0.01-0.21-0.02
		C547.79,296.13,546.26,295.76,544.87,295.52z"/>
	<path class="st1" d="M519.39,527.81C520.02,528.31,519.84,528.12,519.39,527.81L519.39,527.81z"/>
	<g>
		<path class="st2" d="M892.45,723.97c5.72-2.5,9.95-7.25,10.34-13.71c0.43-7.21-2.43-15.19-5.1-21.76
			c-2.28-5.61-5.86-12.05-11.26-15.19c-7.09-4.12-12.65-0.29-19.58,1.5c-6.8,1.76-14.64,1.32-20.3-3.18
			c-5.64-4.48-8.53-11.47-8.18-18.61c0.35-6.99,5.46-13.06,3-20.16c-4.49-12.98-22.58-19.75-34.89-20.77
			c-6.89-0.57-12.28,3.17-15.58,9.14c-3.57,6.46-6.33,11.84-13.62,14.89c-6.47,2.71-14.16,2.34-19.98-1.71
			c-6.1-4.24-7.57-10.33-11.57-16.04c-8.62-12.31-29.25-4.25-39.47,2.14c-5.29,3.31-10.85,8.72-10.87,15.46
			c-0.01,2.76,1.07,5.43,1.49,8.12c0.6,3.79,0.73,7.83,0.26,11.64c-0.96,7.75-4.21,14.12-11.63,17.33
			c-7.44,3.23-14.27,1.21-21.62-0.86c-15.42-4.35-23.75,13.62-26.77,25.86c-1.68,6.83-2.06,14.16,1.86,20.32
			c3.52,5.53,10.73,6.77,15.56,10.96c11.67,10.13,10.05,24.72-1.94,33.92c-5.48,4.21-12.49,5.26-15.27,12.26
			c-2.67,6.71-1.13,14.38,1.05,21.02c2.12,6.43,5.22,13.9,10.24,18.62c5.57,5.24,12.25,5.36,19.23,3.51
			c6.48-1.71,15.63-2.58,21.31,1.73c5.68,4.3,7.9,11.98,6.75,18.82c-1.22,7.26-6.29,12.99-2.97,20.63c2.69,6.2,9.44,10.65,15.3,13.53
			c10.69,5.25,29.32,12.22,37.73-0.31c1.86-2.77,2.73-6.08,4.6-8.88c1.99-2.99,4.67-5.7,7.67-7.69c5.76-3.82,13.44-4.53,19.68-1.44
			c5.81,2.88,10.29,8.59,12.57,14.57c0.33,0.88,0.8,1.67,1.38,2.35c8.53,15.44,32.42,5.46,43.01-3c7.48-5.97,8.64-13.46,5.46-22.06
			c-2.95-7.97-2.39-17.06,3.2-23.77c5.3-6.35,14.71-6.84,22.29-5.22c4.16,0.89,8.02,2.52,12.36,2.12c4.18-0.39,8.15-2.37,11.29-5.13
			c5.94-5.23,9.62-13.78,11.52-21.29c2.17-8.57,2.12-17.09-4.75-23.47c-0.34-0.32-0.7-0.59-1.06-0.81c-0.06-0.05-0.11-0.1-0.17-0.14
			c-5.31-3.99-11.39-5.43-15.2-11.38c-3.78-5.91-4.49-13.81-1.78-20.31C880.68,731.12,886.26,726.68,892.45,723.97z M818.33,766.47
			c-9.9,21.8-31.58,35.44-55.86,32.67c-23.17-2.65-41.92-21.44-45.99-44.18c-3.73-20.82,5.68-42.81,23.43-54.33
			c17.74-11.52,41.01-11.36,58.68,0.28C820.17,715.14,827.62,742.83,818.33,766.47z"/>
		<path class="st2" d="M573.76,876.17c-0.28-0.04-0.57-0.06-0.88-0.06c-106.28,0-212.56,0-318.85,0c-27.98,0-55.95-0.18-83.93-0.3
			c0-93.65,0-187.3,0-280.95c0-95.98,0-191.95,0-287.93c0-52.29-0.42-104.59,0.03-156.88c79.01,0,158.03,0,237.04,0
			c82.09,0,164.19,0,246.28,0c43.46,0,86.95-0.38,130.41,0c0,97.21,0,194.42,0,291.64c0,25.2-0.26,50.4-0.19,75.6
			c0.03,10.02-1.07,20.78,4.99,29.42c5.19,7.4,13.74,11.85,22.83,10.77c8.37-1,16.15-5.87,20.2-13.37
			c5.02-9.31,3.09-21.37,3.09-31.54c0-24.62,0-49.24,0-73.85c0-99.64,0.38-199.29,0.19-298.93c-0.02-9.8,1.24-20.77-4.3-29.42
			c-4.75-7.43-12.64-11.58-21.35-11.96c-12.59-0.55-25.34,0-37.95,0c-12.72,0-25.45,0-38.17,0c-49.65,0-99.31,0-148.96,0
			c-100.59,0-201.17,0-301.76,0c-24.88,0-49.76,0-74.64,0c-12.05,0-24.1,0.02-36.16,0c-5.99-0.01-11.97-0.09-17.96-0.08
			c-5.24,0.01-10.91-0.45-16,1.08c-8.39,2.52-15.13,9.41-17.57,17.82c-1.37,4.71-0.99,9.74-0.99,14.58c0,6.11,0,12.21,0,18.32
			c0,25.15,0,50.3,0,75.45c0,99.98,0,199.96,0,299.94c0,100.93,0,201.86,0,302.79c0,12.68,0,25.35,0,38.03
			c0,12.27-0.78,24.76,0.05,37c0.58,8.6,5.38,16.58,12.84,20.97c8.87,5.21,20.17,3.47,30.01,3.47c49.93,0,99.86,0,149.79,0
			c50.88,0,101.75,0,152.63,0c25.19,0,50.39-0.09,75.58,0.13c11.68,0.1,23.93,1.04,35.55-0.35c8.8-1.05,16.78-6.89,20.46-14.96
			C603.63,896.07,591.21,877.4,573.76,876.17z"/>
		<path class="st2" d="M711.74,263.49c-4.51-4.43-10.26-6.69-16.47-7.11c-0.31-0.04-0.63-0.07-0.96-0.07c-74.44,0-148.88,0-223.33,0
			c-74.15,0-148.35-0.89-222.49-0.17c-7.38,0.07-14.94-0.47-21.74,2.87c-5.98,2.94-10.75,8.32-13.03,14.57
			c-4.55,12.51,2.53,27.41,14.63,32.45c7.22,3.01,15.64,1.93,23.28,1.93c9.21,0,18.42,0,27.63,0c18.81,0,37.62,0,56.43,0
			c74.47,0,148.94,0,223.4,0c37.23,0,74.45,0.07,111.68,0.2c14.16,0.05,31.94,2.92,42.46-8.87
			C722.39,289.03,721.52,273.1,711.74,263.49z"/>
		<path class="st2" d="M664.21,496.54c9.24,0.06,18.47,0.04,27.71-0.17c13.45,0,25.72-10.62,26.24-24.38
			c0.5-13.24-9.45-25.56-22.69-27.07c-8.64-0.98-17.75-0.2-26.45-0.2c-9.25,0-18.51,0-27.76,0c-18.5,0-37,0-55.51,0
			c-74.44,0-148.88,0-223.32,0c-37.19,0-74.4-0.37-111.59-0.2c-7.39,0.04-15.92-0.92-22.98,1.73c-6.21,2.33-11.67,6.99-14.59,13
			c-5.8,11.93-0.81,27.57,10.87,33.98c6.84,3.76,14.39,3.13,21.94,3.13c9.21,0,18.42,0,27.63,0c18.44,0,36.88,0,55.33,0
			c37.51,0,75.01,0,112.52,0C515.77,496.37,589.99,496.08,664.21,496.54z"/>
		<path class="st2" d="M541.95,676.63c14.03-13.82,6.15-37.64-12.31-42.58c-5.24-1.4-10.85-0.94-16.21-0.94c-7.03,0-14.05,0-21.08,0
			c-12.72,0-25.43,0-38.15,0c-53.11,0-106.23,0-159.34,0c-14.53,0-29.06,0-43.59,0c-12,0-23.85-0.97-33.08,8.13
			c-7.48,7.37-9.27,18.1-5.07,27.64c4.24,9.62,13.45,15.22,23.72,15.83c0.27,0.03,0.54,0.05,0.83,0.05c52.99,0,105.97,0,158.96,0
			c26.25,0,52.49,0,78.74,0c12.79,0,25.57,0,38.36,0C524.28,684.77,533.95,684.51,541.95,676.63z"/>
	</g>
</svg>
